<svg xmlns="http://www.w3.org/2000/svg" width="215" height="155" viewBox="0 0 215 155"><defs><style>.a{fill:#041d50;}.b,.c{fill:#fff;}.b{font-size:20px;font-family:Roboto-Regular, Roboto;}</style></defs><g transform="translate(-968 -220)"><rect class="a" width="215" height="155" rx="20" transform="translate(968 220)"/><text class="b" transform="translate(1076 359)"><tspan x="-43.071" y="0">Selección</tspan></text><g transform="translate(1028.3 233.7)"><rect class="c" width="6.211" height="5.638" transform="translate(13.396 43.247)"/><rect class="c" width="13.664" height="5.638" transform="translate(21.996 67.422)"/><rect class="c" width="6.211" height="5.638" transform="translate(13.396 67.422)"/><rect class="c" width="13.664" height="5.638" transform="translate(21.996 59.396)"/><rect class="c" width="6.211" height="5.638" transform="translate(13.396 59.396)"/><rect class="c" width="6.211" height="5.638" transform="translate(13.396 51.273)"/><rect class="c" width="43.478" height="5.638" transform="translate(38.049 43.247)"/><path class="c" d="M85.349,16.3h-75.3A5.342,5.342,0,0,0,4.7,21.651V76.022a5.342,5.342,0,0,0,5.351,5.351h75.3A5.342,5.342,0,0,0,90.7,76.022V21.651A5.469,5.469,0,0,0,85.349,16.3ZM12.44,24.422H52.1a1.529,1.529,0,1,1,0,3.058H12.44a1.509,1.509,0,0,1-1.529-1.529A1.567,1.567,0,0,1,12.44,24.422Zm0,6.116H37.667a1.529,1.529,0,0,1,0,3.058H12.44a1.509,1.509,0,0,1-1.529-1.529A1.642,1.642,0,0,1,12.44,30.538ZM84.011,74.3a1.1,1.1,0,0,1-1.147,1.147H12.153A1.162,1.162,0,0,1,11.007,74.3V42a1.162,1.162,0,0,1,1.147-1.147H82.769A1.162,1.162,0,0,1,83.915,42l.1,32.3Z"/><rect class="c" width="43.478" height="5.638" transform="translate(38.049 51.273)"/><rect class="c" width="13.664" height="5.638" transform="translate(21.996 43.247)"/><rect class="c" width="13.664" height="5.638" transform="translate(21.996 51.273)"/><rect class="c" width="43.478" height="5.638" transform="translate(38.049 67.422)"/><rect class="c" width="43.478" height="5.638" transform="translate(38.049 59.396)"/></g></g></svg>