<svg xmlns="http://www.w3.org/2000/svg" width="215" height="155" viewBox="0 0 215 155"><defs><style>.a{fill:#041d50;}.b,.c{fill:#fff;}.b{font-size:20px;font-family:Roboto-Regular, Roboto;}</style></defs><g transform="translate(-494 -220)"><rect class="a" width="215" height="155" rx="20" transform="translate(494 220)"/><text class="b" transform="translate(602 359)"><tspan x="-45.713" y="0">Productos</tspan></text><g transform="translate(410 211.24)"><g transform="translate(158 40)"><rect class="c" width="67" height="9" transform="translate(0 -0.24)"/><g transform="translate(4.249 13.506)"><path class="c" d="M261,220.436h7.436V213H261Zm2.492-5.009a1.85,1.85,0,1,1,0,2.616A1.849,1.849,0,0,1,263.492,215.427Z" transform="translate(-249.619 -200.253)"/><path class="c" d="M186,129v57.514h58.576V129Zm23.37,47.159a2.312,2.312,0,0,1-2.312,2.312H194.989a2.312,2.312,0,0,1-2.312-2.312V164.091a2.312,2.312,0,0,1,2.312-2.312h12.069a2.312,2.312,0,0,1,2.312,2.312Zm0-24.736a2.312,2.312,0,0,1-2.312,2.312H194.989a2.312,2.312,0,0,1-2.312-2.312V139.355a2.312,2.312,0,0,1,2.312-2.312h12.069a2.312,2.312,0,0,1,2.312,2.312Zm27.771,26.441H215.9v-4.7H237.14Zm0-10.774H215.9v-4.553H237.14Zm0-13.961H215.9v-4.553H237.14Zm0-10.774H215.9v-4.7H237.14Z" transform="translate(-186 -129)"/><rect class="c" width="8" height="7" transform="translate(10.751 37.254)"/></g></g></g></g></svg>