<svg xmlns="http://www.w3.org/2000/svg" width="378.786" height="214.471" viewBox="0 0 378.786 214.471"><defs><style>.a{fill:#00194a;}.b{fill:#c00020;}</style></defs><g transform="translate(-155.82 -226.497)"><g transform="translate(526.175 399.432)"><g transform="translate(2.345 1.984)"><path class="a" d="M442.323,365.519v-4.558h1.937a3.319,3.319,0,0,1,1.062.122,1.048,1.048,0,0,1,.531.437,1.313,1.313,0,0,1,.2.718,1.218,1.218,0,0,1-.3.847,1.449,1.449,0,0,1-.9.421,2.171,2.171,0,0,1,.493.382,5.347,5.347,0,0,1,.523.74l.557.89h-1.1l-.665-.993a6.342,6.342,0,0,0-.487-.67.7.7,0,0,0-.276-.189,1.487,1.487,0,0,0-.463-.052h-.187v1.9Zm.92-2.632h.682a3.514,3.514,0,0,0,.826-.055.494.494,0,0,0,.259-.194.589.589,0,0,0,.094-.342.545.545,0,0,0-.124-.371.558.558,0,0,0-.346-.18c-.075-.01-.3-.016-.673-.016h-.718Z" transform="translate(-442.323 -360.961)"/></g><path class="a" d="M444.735,367.866a4.215,4.215,0,1,1,4.216-4.215A4.22,4.22,0,0,1,444.735,367.866Zm0-7.63a3.415,3.415,0,1,0,3.415,3.415A3.418,3.418,0,0,0,444.735,360.236Z" transform="translate(-440.52 -359.436)"/></g><g transform="translate(278.237 226.497)"><path class="b" d="M309.656,226.5a57.319,57.319,0,0,1,54.017,38.344H334.057a30.793,30.793,0,0,0-48.735,0H255.633A57.45,57.45,0,0,1,309.656,226.5" transform="translate(-248.208 -226.497)"/><path class="b" d="M309.656,323.315a57.338,57.338,0,0,1-54.023-38.344h29.623a30.812,30.812,0,0,0,48.735,0h29.682a57.447,57.447,0,0,1-54.017,38.344" transform="translate(-248.208 -208.905)"/><path class="b" d="M249.925,269.959v7.769a10.717,10.717,0,0,0,10.718,10.718H362.109a10.716,10.716,0,0,0,10.714-10.718v-7.769a10.714,10.714,0,0,0-10.714-10.714H260.643a10.715,10.715,0,0,0-10.718,10.714" transform="translate(-249.925 -216.644)"/></g><g transform="translate(155.82 359.203)"><path class="a" d="M413.85,349.741V336.235h4.574a27.672,27.672,0,0,1,7.907,1.232c1.6.68,3.909,1.843,3.909,5.992a5.163,5.163,0,0,1-3.779,5.284c-2.669.916-7.727,1-8.037,1Zm12.551,5.97s15.111-.8,15.111-13.068c0-12.5-16.079-12.94-20.025-12.94h-18.6v47.108H413.2v-21.1h1.216l22.4,21.1h12.411Z" transform="translate(-81.487 -328.152)"/><rect class="a" width="10.956" height="47.141" transform="translate(66.664 1.519)"/><rect class="a" width="10.95" height="47.141" transform="translate(155.444 1.519)"/><path class="a" d="M166.776,329.677H155.82v47.141h10.956V353.931h33.272v22.887H211V329.677H200.048v17.441H166.776Z" transform="translate(-155.82 -328.16)"/><path class="a" d="M234.669,329.676h-11.36l30.073,48.643c0,.022,30.134-48.643,30.134-48.643H272.176l-18.76,32.934Z" transform="translate(-135.515 -328.16)"/><path class="a" d="M290.16,377.169h10.208l8.387-29.694,21.037,31.2,20.994-31.2,8.452,29.694h10.2l-15.989-48.658-23.653,35.6-23.665-35.6Z" transform="translate(-115.403 -328.511)"/><path class="a" d="M375.161,358.707l9.123-16.362,9.191,16.362Zm9.157-30.16L351.6,377.176h11.61l7.842-12.064h26.721l7.652,12.094h11.561Z" transform="translate(-96.919 -328.5)"/></g><g transform="translate(239.451 416.275)"><path class="b" d="M220.109,396.288l3.076-23.472h4.923l-3.079,23.472h-4.92" transform="translate(-220.109 -372.254)"/><path class="b" d="M229.111,396.287l3.095-23.471h5.114l7.263,12.1q1.173,1.986,1.666,3a15.837,15.837,0,0,1,.8,1.906c.043-1.108.1-2.091.159-2.94s.129-1.521.194-2.012l1.618-12.055h4.619l-3.11,23.471h-4.765l-8.08-13.662q-.749-1.249-1.218-2.2a19.35,19.35,0,0,1-.784-1.812v.756c0,.8-.023,1.575-.065,2.322s-.107,1.454-.194,2.119l-1.747,12.473h-4.569" transform="translate(-217.401 -372.254)"/><path class="b" d="M256.246,392.088h.29q1.682.062,2.4.061a14.673,14.673,0,0,0,4.04-.44,5.6,5.6,0,0,0,2.469-1.47,7.429,7.429,0,0,0,1.66-2.825,11.932,11.932,0,0,0,.568-3.809q0-3.465-1.466-4.994t-4.833-1.532h-3.16l-1.973,15.009m-5.451,4.2,3.095-23.471h4.92a45.618,45.618,0,0,1,5.9.26,9.35,9.35,0,0,1,2.9.877A8.785,8.785,0,0,1,271.4,377.8a13.116,13.116,0,0,1,1.314,6.076,13.458,13.458,0,0,1-1.179,5.869,11.419,11.419,0,0,1-3.7,4.281,10.811,10.811,0,0,1-3.922,1.741,33.471,33.471,0,0,1-6.932.52Z" transform="translate(-210.877 -372.254)"/><path class="b" d="M278.343,372.816l-1.777,13.257c-.046.342-.078.714-.1,1.108s-.032.826-.032,1.3a4.57,4.57,0,0,0,1.067,3.281,4.088,4.088,0,0,0,3.1,1.115,5.272,5.272,0,0,0,2.533-.584,4.822,4.822,0,0,0,1.812-1.742,16.561,16.561,0,0,0,1.46-5.741c.023-.157.039-.271.049-.336l1.569-11.654h4.859l-1.731,13.192a25.8,25.8,0,0,1-.985,4.82,9.392,9.392,0,0,1-1.516,2.766,8.38,8.38,0,0,1-3.446,2.535,13.338,13.338,0,0,1-4.924.818q-4.443,0-6.623-2.006t-2.18-6.045q0-.576.135-1.958t.394-3.4l1.413-10.724h4.92" transform="translate(-204.654 -372.254)"/><path class="b" d="M292.4,390.115a5.982,5.982,0,0,0,1.927,2.132,4.677,4.677,0,0,0,2.564.692,3.427,3.427,0,0,0,2.461-.849,3.089,3.089,0,0,0,.889-2.343,3,3,0,0,0-.51-1.714,4.412,4.412,0,0,0-1.557-1.332q-.258-.144-.753-.416a15.454,15.454,0,0,1-3.879-2.677,5.656,5.656,0,0,1-1.1-1.868,6.965,6.965,0,0,1,1.8-7.326,7.76,7.76,0,0,1,5.5-2.028,8.143,8.143,0,0,1,3.56.745,6.963,6.963,0,0,1,2.645,2.236l-2.516,3.256a4.518,4.518,0,0,0-1.538-1.748,3.891,3.891,0,0,0-2.117-.578,3.285,3.285,0,0,0-2.254.784,2.566,2.566,0,0,0-.891,2.006q0,1.584,2.92,3.238c.373.213.656.381.849.5a10.5,10.5,0,0,1,3.592,3.047,7.087,7.087,0,0,1,.947,3.847,6.835,6.835,0,0,1-2.223,5.308,8.411,8.411,0,0,1-5.892,2.023,8.723,8.723,0,0,1-3.977-.885,8.939,8.939,0,0,1-3.112-2.691l2.662-3.354" transform="translate(-199.161 -372.384)"/><path class="b" d="M308.41,396.288l2.552-19.369h-6.093l.543-4.1h16.659l-.53,4.1h-5.676l-2.533,19.369H308.41" transform="translate(-194.609 -372.254)"/><path class="b" d="M326.062,382.965h.721a6.668,6.668,0,0,0,3.792-.762,3.094,3.094,0,0,0,1-2.623,2.636,2.636,0,0,0-.843-2.23,5.851,5.851,0,0,0-3.3-.643h-.559l-.817,6.257m-1.734,13.322h-4.937l3.095-23.471h4.887a21.568,21.568,0,0,1,4.42.319,6.365,6.365,0,0,1,2.381,1.089,5.538,5.538,0,0,1,1.731,2.045,6.045,6.045,0,0,1,.595,2.688,6.58,6.58,0,0,1-1.516,4.449,7.747,7.747,0,0,1-4.354,2.381l5.323,10.5h-5.388l-4.826-10.776Z" transform="translate(-190.239 -372.254)"/><path class="b" d="M335.406,396.288l3.079-23.472h4.923l-3.079,23.472h-4.923" transform="translate(-185.421 -372.254)"/><path class="b" d="M358.777,387.388l-1.121-5.547c-.107-.566-.2-1.254-.288-2.061s-.168-1.771-.242-2.892q-.355,1.28-.753,2.381c-.268.73-.553,1.411-.849,2.042l-2.855,6.076h6.109m-16.033,8.9L354.9,372.816h5.356l5.644,23.471h-5.211l-1-5.049h-8.932l-2.533,5.049Z" transform="translate(-183.214 -372.254)"/><path class="b" d="M363.763,396.288l3.095-23.472h4.923l-2.565,19.3h8.144l-.546,4.17H363.763" transform="translate(-176.89 -372.254)"/></g></g></svg>