<svg xmlns="http://www.w3.org/2000/svg" width="215" height="155" viewBox="0 0 215 155"><defs><style>.a{fill:#c90e2d;}.b,.c{fill:#fff;}.b{font-size:20px;font-family:Roboto-Regular, Roboto;}</style></defs><g transform="translate(-494 -392)"><rect class="a" width="215" height="155" rx="20" transform="translate(494 392)"/><text class="b" transform="translate(602 531)"><tspan x="-68.774" y="0">Valor Agregado</tspan></text><g transform="translate(551.179 -310.266)"><g transform="translate(12.473 731.204)"><path class="c" d="M28.451,783.381,12.473,767.81c.555-.528,1.078-1.01,1.584-1.512,3.241-3.21,6.446-6.458,9.723-9.629,5.312-5.141,11.519-6.53,18.52-4.167a13.129,13.129,0,0,0,4.464.769c4.314-.065,8.628-.024,12.942-.019a4.834,4.834,0,0,1,5.081,4.825,4.97,4.97,0,0,1-5.021,4.876c-3.034.029-6.067,0-9.1.01a1.9,1.9,0,0,0-2.086,2.112,1.749,1.749,0,0,0,1.548,1.64,108.987,108.987,0,0,0,11.442-.2c3.832-.412,6.651-3.853,7.041-7.707a1.6,1.6,0,0,1,.35-.851c2.785-3.164,5.573-6.328,8.4-9.458a5.091,5.091,0,0,1,5.828-1.259,4.949,4.949,0,0,1,2.973,4.852,4.9,4.9,0,0,1-1.23,3.024c-5.744,6.6-11.474,13.222-17.251,19.8a11.633,11.633,0,0,1-9.1,4.034q-12.316.015-24.63-.046a2.227,2.227,0,0,0-1.8.762C30.969,780.916,29.727,782.107,28.451,783.381Z" transform="translate(-12.473 -709.169)"/><path class="c" d="M34.293,745.965c0-1.727,0-3.352,0-4.977a3.56,3.56,0,1,1,7.114-.01c.01,1.406,0,2.812.007,4.215,0,.241.022.48.036.81,1.519,0,2.99,0,4.461,0a9.375,9.375,0,0,1,1.4.039,3.538,3.538,0,0,1,2.981,3.8,3.457,3.457,0,0,1-3.386,3.265c-1.526.046-3.055.017-4.584.022h-.849c-.027.289-.06.5-.063.714,0,1.454,0,2.908-.007,4.365a3.56,3.56,0,1,1-7.116-.039c-.01-1.379,0-2.761,0-4.14v-.861c-.342-.014-.605-.036-.868-.036-1.529,0-3.058.01-4.584-.012A3.563,3.563,0,1,1,28.9,746c1.529,0,3.055,0,4.584,0C33.721,746,33.96,745.979,34.293,745.965Z" transform="translate(5.527 -722.643)"/><path class="c" d="M30.425,739.559c1.321,0,2.527,0,3.73,0a2.621,2.621,0,1,1,.065,5.233c-1.227.027-2.457,0-3.791,0,0,1.408.029,2.73-.007,4.051a2.586,2.586,0,0,1-3.511,2.363A2.549,2.549,0,0,1,25.19,748.7c-.017-.986-.007-1.972-.01-2.961v-.9c-1.271,0-2.469.01-3.668,0a2.672,2.672,0,0,1-2.768-1.9,2.6,2.6,0,0,1,2.426-3.362c1.3-.029,2.6,0,4,0,0-1.281,0-2.479,0-3.68a2.635,2.635,0,1,1,5.252-.051C30.427,737.044,30.425,738.247,30.425,739.559Z" transform="translate(-3.781 -728.642)"/><path class="c" d="M37.571,736.835c0-1.114,0-2.144,0-3.173a2.263,2.263,0,1,1,4.514-.075c.029,1.01.019,2.021.029,3.031,0,.043.036.087.1.217,1.037,0,2.115-.024,3.193,0a2.254,2.254,0,0,1,2.18,3.01,2.282,2.282,0,0,1-2.238,1.507c-1.01.017-2.021.014-3.031.022-.043,0-.087.034-.224.094,0,1.037.019,2.112-.007,3.19a2.225,2.225,0,0,1-1.62,2.221,2.067,2.067,0,0,1-2.411-.812,3.349,3.349,0,0,1-.461-1.514c-.07-1.027-.022-2.062-.022-3.2-1.15,0-2.252.029-3.349-.007a2.26,2.26,0,1,1,.118-4.517C35.377,736.833,36.411,736.835,37.571,736.835Z" transform="translate(14.995 -731.204)"/></g></g></g></svg>