<svg xmlns="http://www.w3.org/2000/svg" width="215" height="155" viewBox="0 0 215 155"><defs><style>.a{fill:#041d50;}.b,.c{fill:#fff;}.b{font-size:20px;font-family:Roboto-Regular, Roboto;}</style></defs><g transform="translate(-731 -392)"><rect class="a" width="215" height="155" rx="20" transform="translate(731 392)"/><text class="b" transform="translate(839 531)"><tspan x="-39.263" y="0">Usuarios</tspan></text><g transform="translate(788.5 408.9)"><path class="c" d="M50.5,51.7a25.63,25.63,0,0,0-7.1-7.2,1.059,1.059,0,0,0-1.3.1,21.793,21.793,0,0,1-12.8,4.2,21.125,21.125,0,0,1-12.8-4.2,1.23,1.23,0,0,0-1.3-.1C6.7,50,2.5,60.7,2.5,73c0,5.2,20.3,7.2,36,6C39.2,67.4,43.4,57.8,50.5,51.7Z"/><circle class="c" cx="16" cy="16" r="16" transform="translate(13.3 11.1)"/><path class="c" d="M84.8,54.1a1.059,1.059,0,0,0-1.3.1,21.6,21.6,0,0,1-25.6,0,1.23,1.23,0,0,0-1.3-.1C48.2,59.5,44,70.2,44,82.5c0,8.5,53.5,8.5,53.5,0C97.5,70.2,93.3,59.5,84.8,54.1Z"/><circle class="c" cx="16" cy="16" r="16" transform="translate(54.7 20.7)"/></g></g></svg>