<svg xmlns="http://www.w3.org/2000/svg" width="215" height="155" viewBox="0 0 215 155"><defs><style>.a{fill:#041d50;}.b,.c{fill:#fff;}.b{font-size:20px;font-family:Roboto-Regular, Roboto;}</style></defs><g transform="translate(-731 -220)"><rect class="a" width="215" height="155" rx="20" transform="translate(731 220)"/><text class="b" transform="translate(839 359)"><tspan x="-86.704" y="0">Importar Productos</tspan></text><g transform="translate(802 243.37)"><path class="c" d="M69.628,45.821c.616,0,1.22.039,1.81.09V9.124A4.5,4.5,0,0,0,66.945,4.63H6.494A4.5,4.5,0,0,0,2,9.124V60.779a4.5,4.5,0,0,0,4.494,4.494H49.957A19.7,19.7,0,0,1,69.628,45.821ZM23.648,17.329H60.062a1.284,1.284,0,0,1,0,2.568H23.648a1.284,1.284,0,1,1,0-2.568Zm0,16.9H60.062a1.284,1.284,0,0,1,0,2.568H23.648a1.284,1.284,0,1,1,0-2.568ZM19.206,48.132l-7.986,7.974a1.272,1.272,0,0,1-.9.372,1.319,1.319,0,0,1-.9-.372l-2.4-2.4a1.294,1.294,0,0,1,0-1.823,1.279,1.279,0,0,1,1.81,0l1.489,1.489,7.062-7.062a1.294,1.294,0,0,1,1.823,0A1.319,1.319,0,0,1,19.206,48.132Zm0-16.9-7.986,7.974a1.285,1.285,0,0,1-.9.372,1.263,1.263,0,0,1-.9-.372l-2.4-2.4a1.279,1.279,0,0,1,0-1.81,1.256,1.256,0,0,1,1.81,0l1.489,1.489,7.062-7.062a1.285,1.285,0,0,1,1.823,1.81Zm0-16.885-7.986,7.961a1.246,1.246,0,0,1-.9.385,1.225,1.225,0,0,1-.9-.385l-2.4-2.4a1.28,1.28,0,0,1,1.81-1.81l1.489,1.489,7.062-7.062a1.294,1.294,0,0,1,1.823,0A1.318,1.318,0,0,1,19.206,14.35ZM49.623,53.679H23.648a1.284,1.284,0,1,1,0-2.568H49.623a1.284,1.284,0,1,1,0,2.568Z"/><path class="c" d="M58.456,38.71A17.116,17.116,0,1,0,75.571,55.826,17.135,17.135,0,0,0,58.456,38.71Zm6.073,14.432a1.279,1.279,0,0,1-1.81,0L59.74,50.163V64.583a1.284,1.284,0,0,1-2.568,0V50.163l-2.979,2.979a1.285,1.285,0,0,1-1.81-1.823l5.162-5.162a1.557,1.557,0,0,1,.411-.282,1.377,1.377,0,0,1,.5-.09,1.266,1.266,0,0,1,.488.09,1.438,1.438,0,0,1,.424.282l5.162,5.162A1.294,1.294,0,0,1,64.529,53.142Z" transform="translate(11.172 9.679)"/></g></g></svg>