<svg xmlns="http://www.w3.org/2000/svg" width="215" height="155" viewBox="0 0 215 155"><defs><style>.a{fill:#c90e2d;}.b,.c{fill:#fff;}.b{font-size:20px;font-family:Roboto-Regular, Roboto;}</style></defs><g transform="translate(-257 -392)"><rect class="a" width="215" height="155" rx="20" transform="translate(257 392)"/><text class="b" transform="translate(365 531)"><tspan x="-33.291" y="0">Marcas</tspan></text><path class="c" d="M85.306,54.313h7.926a7.046,7.046,0,1,0,0-3.523H85.306V33.507h7.926a7.046,7.046,0,1,0,0-3.523H83.544a1.739,1.739,0,0,0-1.761,1.761V50.791H73.857V41.323a1.927,1.927,0,0,0-1.1-1.651L55.472,31.746a1.876,1.876,0,0,0-1.541,0L36.647,39.672a1.8,1.8,0,0,0-1.1,1.651v9.468H27.62V31.746a1.739,1.739,0,0,0-1.761-1.761H16.171a7.046,7.046,0,1,0,0,3.523H24.1V50.791H16.171a7.046,7.046,0,1,0,0,3.523H24.1V71.6H16.171a7.046,7.046,0,1,0,0,3.523h9.688a1.739,1.739,0,0,0,1.761-1.761V54.313h7.926v9.468a1.927,1.927,0,0,0,1.1,1.651l17.284,7.926a1.632,1.632,0,0,0,.771.11,1.873,1.873,0,0,0,.771-.11l17.284-7.926a1.8,1.8,0,0,0,1.1-1.651V54.313h7.926V73.359a1.739,1.739,0,0,0,1.761,1.761h9.688a7.046,7.046,0,1,0,0-3.523H85.306Zm14.752-5.174a3.413,3.413,0,1,1-3.413,3.413A3.36,3.36,0,0,1,100.058,49.139Zm0-20.917a3.413,3.413,0,1,1-3.413,3.413A3.43,3.43,0,0,1,100.058,28.223ZM9.566,35.158a3.413,3.413,0,1,1,3.413-3.413A3.43,3.43,0,0,1,9.566,35.158Zm0,20.806a3.413,3.413,0,1,1,3.413-3.413A3.36,3.36,0,0,1,9.566,55.965Zm0,20.917a3.413,3.413,0,1,1,3.413-3.413A3.43,3.43,0,0,1,9.566,76.881Zm45.246-41.5,12.88,5.945-12.88,5.835-12.88-5.945ZM39.4,44.075,53.05,50.35V69.065L39.4,62.68Zm17.174,24.88V50.24l13.651-6.165V62.79Zm43.484.991a3.413,3.413,0,1,1-3.413,3.413A3.43,3.43,0,0,1,100.058,69.946Z" transform="translate(309.798 410.079)"/></g></svg>