<svg xmlns="http://www.w3.org/2000/svg" width="215" height="155" viewBox="0 0 215 155"><defs><style>.a{fill:#c90e2d;}.b,.c{fill:#fff;}.b{font-size:20px;font-family:Roboto-Regular, Roboto;}</style></defs><g transform="translate(-968 -392)"><rect class="a" width="215" height="155" rx="20" transform="translate(968 392)"/><text class="b" transform="translate(1076 531)"><tspan x="-33.091" y="0">Backup</tspan></text><path class="c" d="M47.42,5.79a37.58,37.58,0,0,0-37.412,34.1L7.639,37.523a4.474,4.474,0,0,0-6.328,6.325L12.046,54.586a4.474,4.474,0,0,0,6.327,0L29.113,43.848a4.473,4.473,0,0,0-6.326-6.325L20.912,39.4a26.778,26.778,0,1,1,4.855,19.839,5.367,5.367,0,1,0-8.651,6.355,37.579,37.579,0,1,0,30.3-59.8Z" transform="translate(1033 411.21)"/></g></svg>