<svg xmlns="http://www.w3.org/2000/svg" width="70.353" height="65.495" viewBox="0 0 70.353 65.495"><defs><style>.a{fill:#c90e2d;}</style></defs><path class="a" d="M286.559,226.5a32.812,32.812,0,0,1,30.922,21.95H300.527a17.628,17.628,0,0,0-27.9,0h-17a32.888,32.888,0,0,1,30.926-21.95" transform="translate(-251.382 -226.497)"/><path class="a" d="M286.559,306.921a32.824,32.824,0,0,1-30.926-21.95h16.958a17.638,17.638,0,0,0,27.9,0h16.991a32.886,32.886,0,0,1-30.922,21.95" transform="translate(-251.382 -241.426)"/><path class="a" d="M249.925,265.378v4.447a6.135,6.135,0,0,0,6.135,6.135h58.085a6.134,6.134,0,0,0,6.133-6.135v-4.447a6.133,6.133,0,0,0-6.133-6.133H256.061a6.134,6.134,0,0,0-6.135,6.133" transform="translate(-249.925 -234.858)"/></svg>