<svg xmlns="http://www.w3.org/2000/svg" width="95" height="77.775" viewBox="0 0 95 77.775"><defs><style>.a{fill:#fff;}</style></defs><g transform="translate(-2.5 -11.1)"><path class="a" d="M50.5,51.7a25.63,25.63,0,0,0-7.1-7.2,1.059,1.059,0,0,0-1.3.1,21.793,21.793,0,0,1-12.8,4.2,21.125,21.125,0,0,1-12.8-4.2,1.23,1.23,0,0,0-1.3-.1C6.7,50,2.5,60.7,2.5,73c0,5.2,20.3,7.2,36,6C39.2,67.4,43.4,57.8,50.5,51.7Z"/><circle class="a" cx="16" cy="16" r="16" transform="translate(13.3 11.1)"/><path class="a" d="M84.8,54.1a1.059,1.059,0,0,0-1.3.1,21.6,21.6,0,0,1-25.6,0,1.23,1.23,0,0,0-1.3-.1C48.2,59.5,44,70.2,44,82.5c0,8.5,53.5,8.5,53.5,0C97.5,70.2,93.3,59.5,84.8,54.1Z"/><circle class="a" cx="16" cy="16" r="16" transform="translate(54.7 20.7)"/></g></svg>